<?xml version="1.0" standalone="no"?>
<!DOCTYPE svg PUBLIC "-//W3C//DTD SVG 1.1//EN" "http://www.w3.org/Graphics/SVG/1.1/DTD/svg11.dtd">
<svg xmlns="http://www.w3.org/2000/svg" viewBox="0 0 35 35" shape-rendering="crispEdges" style="fill: rgb(255, 255, 255);" width="35" height="35"><path fill="#ffffff" d="M0 0h35v35H0z"/><path stroke="#000000" d="M1 1.5h7m1 0h1m1 0h1m1 0h5m1 0h1m4 0h1m2 0h7M1 2.5h1m5 0h1m4 0h4m3 0h2m1 0h1m4 0h1m5 0h1M1 3.5h1m1 0h3m1 0h1m5 0h1m1 0h1m2 0h2m1 0h5m1 0h1m1 0h3m1 0h1M1 4.5h1m1 0h3m1 0h1m1 0h2m1 0h1m4 0h2m3 0h2m1 0h1m1 0h1m1 0h3m1 0h1M1 5.5h1m1 0h3m1 0h1m1 0h1m1 0h1m2 0h1m2 0h1m2 0h1m3 0h1m2 0h1m1 0h3m1 0h1M1 6.5h1m5 0h1m1 0h5m2 0h1m4 0h1m5 0h1m5 0h1M1 7.5h7m1 0h1m1 0h1m1 0h1m1 0h1m1 0h1m1 0h1m1 0h1m1 0h1m1 0h1m1 0h7M9 8.5h2m4 0h1m2 0h1m1 0h3m2 0h1M1 9.5h1m3 0h1m1 0h5m1 0h1m2 0h1m1 0h1m2 0h10m2 0h1M1 10.5h1m1 0h1m2 0h1m1 0h3m1 0h2m1 0h2m1 0h2m2 0h3m1 0h1m3 0h3M4 11.5h1m2 0h1m3 0h7m1 0h1m1 0h1m2 0h3m3 0h1m1 0h1M3 12.5h1m4 0h1m3 0h1m1 0h1m2 0h1m2 0h1m2 0h1m1 0h2m5 0h1M1 13.5h1m1 0h1m1 0h4m1 0h1m1 0h1m1 0h1m2 0h1m5 0h5m1 0h2m1 0h1M1 14.5h1m3 0h1m2 0h3m1 0h1m1 0h2m2 0h4m2 0h1m1 0h1m1 0h1m1 0h2M1 15.5h2m1 0h4m1 0h2m1 0h5m1 0h1m2 0h1m1 0h2m1 0h2m1 0h2m1 0h1M1 16.5h1m1 0h4m1 0h3m1 0h1m1 0h1m1 0h4m2 0h1m1 0h1m1 0h2m2 0h1M3 17.5h1m1 0h4m3 0h1m1 0h2m2 0h1m1 0h4m1 0h1m1 0h1m1 0h1m2 0h1M4 18.5h1m4 0h2m1 0h1m1 0h4m6 0h1m1 0h1m3 0h3M1 19.5h4m2 0h1m1 0h4m1 0h1m1 0h1m1 0h1m3 0h3m1 0h3m1 0h1m1 0h1M1 20.5h4m3 0h1m1 0h1m2 0h10m1 0h5m4 0h1M2 21.5h3m2 0h1m2 0h1m2 0h2m4 0h1m1 0h1m2 0h1m2 0h1m1 0h2M1 22.5h1m1 0h1m1 0h2m1 0h4m1 0h1m3 0h1m2 0h1m2 0h2m1 0h1m1 0h1m1 0h1m1 0h1M3 23.5h1m1 0h3m1 0h1m1 0h2m1 0h1m2 0h1m2 0h1m2 0h3m1 0h1m3 0h2M3 24.5h3m3 0h1m1 0h2m1 0h2m2 0h1m1 0h5m7 0h1M1 25.5h2m1 0h2m1 0h2m1 0h2m2 0h1m1 0h1m1 0h1m2 0h3m1 0h5M9 26.5h1m1 0h1m4 0h4m1 0h3m1 0h1m3 0h1m1 0h2M1 27.5h7m1 0h3m1 0h1m2 0h1m2 0h1m5 0h1m1 0h1m1 0h2M1 28.5h1m5 0h1m2 0h1m1 0h2m3 0h1m5 0h1m1 0h1m3 0h1m2 0h2M1 29.5h1m1 0h3m1 0h1m1 0h2m1 0h2m1 0h3m2 0h1m2 0h1m1 0h6M1 30.5h1m1 0h3m1 0h1m2 0h2m1 0h2m3 0h4m2 0h2m1 0h3m2 0h1M1 31.5h1m1 0h3m1 0h1m5 0h1m2 0h1m1 0h1m2 0h2m1 0h1m2 0h4M1 32.5h1m5 0h1m3 0h1m4 0h4m2 0h1m1 0h4M1 33.5h7m1 0h1m1 0h3m4 0h1m1 0h1m1 0h6m5 0h1"/></svg>