<svg xmlns="http://www.w3.org/2000/svg" width="375" viewBox="0 0 375 93.75" height="93.75" version="1.0"><g><g><g><path d="M 4.109375 0 L 4.109375 -38.28125 L 11.84375 -38.28125 L 11.84375 0 Z M 4.109375 0" transform="translate(.814 49.119)"/></g></g></g><g><g><g><path d="M 29.171875 -38.390625 L 36.90625 -38.390625 L 36.90625 0 L 29.171875 0 L 11.84375 -26.546875 L 11.84375 0 L 4.109375 0 L 4.109375 -38.390625 L 11.84375 -38.390625 L 29.171875 -11.84375 Z M 29.171875 -38.390625" transform="translate(16.776 49.119)"/></g></g></g><g><g><g><path d="M 16.5 -32.625 C 14.96875 -32.625 13.71875 -32.234375 12.75 -31.453125 C 11.78125 -30.671875 11.296875 -29.582031 11.296875 -28.1875 C 11.296875 -26.800781 11.648438 -25.710938 12.359375 -24.921875 C 13.078125 -24.140625 14.019531 -23.535156 15.1875 -23.109375 C 16.363281 -22.691406 17.644531 -22.316406 19.03125 -21.984375 C 20.414062 -21.660156 21.800781 -21.257812 23.1875 -20.78125 C 24.582031 -20.3125 25.863281 -19.726562 27.03125 -19.03125 C 28.207031 -18.332031 29.148438 -17.316406 29.859375 -15.984375 C 30.578125 -14.648438 30.9375 -13.035156 30.9375 -11.140625 C 30.9375 -7.992188 29.679688 -5.285156 27.171875 -3.015625 C 24.671875 -0.742188 21.34375 0.390625 17.1875 0.390625 C 13.039062 0.390625 9.6875 -0.585938 7.125 -2.546875 C 4.570312 -4.503906 3.296875 -7.253906 3.296875 -10.796875 L 11.515625 -10.796875 C 11.804688 -7.441406 13.726562 -5.765625 17.28125 -5.765625 C 19.03125 -5.765625 20.414062 -6.21875 21.4375 -7.125 C 22.46875 -8.039062 22.984375 -9.253906 22.984375 -10.765625 C 22.984375 -12.285156 22.304688 -13.484375 20.953125 -14.359375 C 19.597656 -15.242188 17.957031 -15.90625 16.03125 -16.34375 C 14.113281 -16.78125 12.1875 -17.304688 10.25 -17.921875 C 8.3125 -18.546875 6.664062 -19.632812 5.3125 -21.1875 C 3.96875 -22.75 3.296875 -24.804688 3.296875 -27.359375 C 3.296875 -30.835938 4.554688 -33.617188 7.078125 -35.703125 C 9.597656 -37.785156 12.84375 -38.828125 16.8125 -38.828125 C 20.78125 -38.828125 23.96875 -37.921875 26.375 -36.109375 C 28.789062 -34.304688 30.109375 -31.554688 30.328125 -27.859375 L 21.875 -27.859375 C 21.726562 -29.316406 21.179688 -30.472656 20.234375 -31.328125 C 19.285156 -32.191406 18.039062 -32.625 16.5 -32.625 Z M 16.5 -32.625" transform="translate(57.803 49.119)"/></g></g></g><g><g><g><path d="M 29.125 -19.1875 C 28.132812 -17.988281 26.695312 -17.03125 24.8125 -16.3125 C 22.9375 -15.601562 20.734375 -15.25 18.203125 -15.25 L 11.84375 -15.25 L 11.84375 0 L 4.109375 0 L 4.109375 -38.28125 L 18.203125 -38.28125 C 22.628906 -38.28125 26.039062 -37.171875 28.4375 -34.953125 C 30.832031 -32.742188 32.03125 -30.140625 32.03125 -27.140625 C 32.03125 -24.148438 31.0625 -21.5 29.125 -19.1875 Z M 11.84375 -21.171875 L 18.203125 -21.171875 C 20.140625 -21.171875 21.617188 -21.671875 22.640625 -22.671875 C 23.671875 -23.679688 24.1875 -25.046875 24.1875 -26.765625 C 24.1875 -28.484375 23.671875 -29.84375 22.640625 -30.84375 C 21.617188 -31.851562 20.140625 -32.359375 18.203125 -32.359375 L 11.84375 -32.359375 Z M 11.84375 -21.171875" transform="translate(92.03 49.119)"/></g></g></g><g><g><g><path d="M 26.21875 -38.390625 L 26.21875 -32.46875 L 11.84375 -32.46875 L 11.84375 -22.4375 L 24.5625 -22.4375 L 24.5625 -16.515625 L 11.84375 -16.515625 L 11.84375 -5.921875 L 26.21875 -5.921875 L 26.21875 0 L 4.109375 0 L 4.109375 -38.390625 Z M 26.21875 -38.390625" transform="translate(125.762 49.119)"/></g></g></g><g><g><g><path d="M 11.84375 0 L 4.109375 0 L 4.109375 -38.28125 L 11.84375 -38.28125 L 11.84375 -21.171875 L 25.671875 -38.28125 L 35.765625 -38.28125 L 19.140625 -19.078125 L 35.765625 0 L 25.71875 0 L 11.84375 -17 Z M 11.84375 0" transform="translate(155.765 49.119)"/></g></g></g><g><g><g><path d="M 1.859375 -32.359375 L 1.859375 -38.28125 L 30.21875 -38.28125 L 30.21875 -32.359375 L 19.859375 -32.359375 L 19.859375 0 L 12.171875 0 L 12.171875 -32.359375 Z M 1.859375 -32.359375" transform="translate(192.733 49.119)"/></g></g></g><g><g><g><path d="M 30 -10.109375 C 32.15625 -12.398438 33.234375 -15.445312 33.234375 -19.25 C 33.234375 -23.050781 32.15625 -26.082031 30 -28.34375 C 27.84375 -30.613281 25.023438 -31.75 21.546875 -31.75 C 18.078125 -31.75 15.253906 -30.609375 13.078125 -28.328125 C 10.898438 -26.046875 9.8125 -23.007812 9.8125 -19.21875 C 9.8125 -15.4375 10.898438 -12.398438 13.078125 -10.109375 C 15.253906 -7.828125 18.078125 -6.6875 21.546875 -6.6875 C 25.023438 -6.6875 27.84375 -7.828125 30 -10.109375 Z M 21.546875 0.390625 C 16.023438 0.390625 11.378906 -1.453125 7.609375 -5.140625 C 3.847656 -8.835938 1.96875 -13.53125 1.96875 -19.21875 C 1.96875 -24.90625 3.859375 -29.59375 7.640625 -33.28125 C 11.429688 -36.976562 16.078125 -38.828125 21.578125 -38.828125 C 27.078125 -38.828125 31.707031 -36.976562 35.46875 -33.28125 C 39.238281 -29.59375 41.125 -24.90625 41.125 -19.21875 C 41.125 -13.53125 39.238281 -8.835938 35.46875 -5.140625 C 31.707031 -1.453125 27.066406 0.390625 21.546875 0.390625 Z M 21.546875 0.390625" transform="translate(224.766 49.119)"/></g></g></g><g><g><g><path d="M 11.84375 -15.25 L 11.84375 0 L 4.109375 0 L 4.109375 -38.28125 L 18.203125 -38.28125 C 22.628906 -38.28125 26.039062 -37.171875 28.4375 -34.953125 C 30.832031 -32.742188 32.03125 -30.015625 32.03125 -26.765625 C 32.03125 -24.347656 31.296875 -22.097656 29.828125 -20.015625 C 28.367188 -17.929688 26.066406 -16.503906 22.921875 -15.734375 L 32.6875 0 L 23.53125 0 L 14.375 -15.25 Z M 11.84375 -32.359375 L 11.84375 -21.171875 L 18.203125 -21.171875 C 20.140625 -21.171875 21.617188 -21.671875 22.640625 -22.671875 C 23.671875 -23.679688 24.1875 -25.046875 24.1875 -26.765625 C 24.1875 -28.484375 23.671875 -29.84375 22.640625 -30.84375 C 21.617188 -31.851562 20.140625 -32.359375 18.203125 -32.359375 Z M 11.84375 -32.359375" transform="translate(267.878 49.119)"/></g></g></g><g><g><g><path d="M 29.234375 0 L 26.765625 -7.1875 L 11.84375 -7.1875 L 9.375 0 L 1.203125 0 L 14.75 -38.390625 L 23.90625 -38.390625 L 37.40625 0 Z M 13.875 -13.109375 L 24.796875 -13.109375 L 19.3125 -29.0625 Z M 13.875 -13.109375" transform="translate(303.475 49.119)"/></g></g></g><g><g><g><path d="M 1.859375 -32.359375 L 1.859375 -38.28125 L 30.21875 -38.28125 L 30.21875 -32.359375 L 19.859375 -32.359375 L 19.859375 0 L 12.171875 0 L 12.171875 -32.359375 Z M 1.859375 -32.359375" transform="translate(342.144 49.119)"/></g></g></g><g><g><g><path d="M 5.0625 0 L 2.625 0 L 2.625 -24.078125 L 5.0625 -24.078125 L 5.0625 -12.8125 L 15.5 -24.078125 L 18.671875 -24.078125 L 6.984375 -11.875 L 18.671875 0 L 15.359375 0 L 5.0625 -10.828125 Z M 5.0625 0" transform="translate(38.776 82.78)"/></g></g></g><g><g><g><path d="M 19.625 0 L 17.59375 -5.625 L 6.359375 -5.625 L 4.296875 0 L 1.84375 0 L 10.71875 -24.078125 L 13.234375 -24.078125 L 22.0625 0 Z M 7.046875 -7.578125 L 16.859375 -7.578125 L 11.96875 -21.046875 Z M 7.046875 -7.578125" transform="translate(58.493 82.78)"/></g></g></g><g><g><g><path d="M 2.625 -24.078125 L 10.75 -24.078125 C 13.21875 -24.078125 15.109375 -23.476562 16.421875 -22.28125 C 17.734375 -21.082031 18.390625 -19.539062 18.390625 -17.65625 C 18.390625 -14.976562 16.851562 -13.234375 13.78125 -12.421875 C 15.320312 -12.171875 16.566406 -11.46875 17.515625 -10.3125 C 18.472656 -9.164062 18.953125 -7.773438 18.953125 -6.140625 C 18.953125 -4.515625 18.226562 -3.082031 16.78125 -1.84375 C 15.34375 -0.613281 13.460938 0 11.140625 0 L 2.625 0 Z M 5.0625 -22.09375 L 5.0625 -13.40625 L 10.75 -13.40625 C 12.375 -13.40625 13.640625 -13.796875 14.546875 -14.578125 C 15.460938 -15.359375 15.921875 -16.410156 15.921875 -17.734375 C 15.921875 -19.054688 15.460938 -20.113281 14.546875 -20.90625 C 13.640625 -21.695312 12.375 -22.09375 10.75 -22.09375 Z M 5.0625 -1.953125 L 11.09375 -1.953125 C 12.84375 -1.953125 14.191406 -2.367188 15.140625 -3.203125 C 16.097656 -4.046875 16.578125 -5.195312 16.578125 -6.65625 C 16.578125 -8.125 16.046875 -9.285156 14.984375 -10.140625 C 13.929688 -10.992188 12.53125 -11.421875 10.78125 -11.421875 L 5.0625 -11.421875 Z M 5.0625 -1.953125" transform="translate(82.4 82.78)"/></g></g></g><g><g><g><path d="M 2.625 -8.09375 L 2.625 -24.078125 L 5.0625 -24.078125 L 5.0625 -8.09375 C 5.0625 -5.957031 5.632812 -4.367188 6.78125 -3.328125 C 7.9375 -2.296875 9.515625 -1.78125 11.515625 -1.78125 C 13.515625 -1.78125 15.082031 -2.296875 16.21875 -3.328125 C 17.363281 -4.367188 17.9375 -5.957031 17.9375 -8.09375 L 17.9375 -24.078125 L 20.390625 -24.078125 L 20.390625 -8.09375 C 20.390625 -5.351562 19.5625 -3.273438 17.90625 -1.859375 C 16.25 -0.453125 14.117188 0.25 11.515625 0.25 C 8.910156 0.25 6.773438 -0.453125 5.109375 -1.859375 C 3.453125 -3.273438 2.625 -5.351562 2.625 -8.09375 Z M 2.625 -8.09375" transform="translate(103.164 82.78)"/></g></g></g><g><g><g><path d="M 16.125 -22.140625 C 17.519531 -20.847656 18.21875 -19.15625 18.21875 -17.0625 C 18.21875 -14.96875 17.523438 -13.28125 16.140625 -12 C 14.753906 -10.726562 12.703125 -10.09375 9.984375 -10.09375 L 5.0625 -10.09375 L 5.0625 0 L 2.625 0 L 2.625 -24.078125 L 9.984375 -24.078125 C 12.679688 -24.078125 14.726562 -23.429688 16.125 -22.140625 Z M 5.0625 -12.078125 L 9.984375 -12.078125 C 13.828125 -12.078125 15.75 -13.742188 15.75 -17.078125 C 15.75 -20.421875 13.828125 -22.09375 9.984375 -22.09375 L 5.0625 -22.09375 Z M 5.0625 -12.078125" transform="translate(126.128 82.78)"/></g></g></g><g><g><g><path d="M 19.625 0 L 17.59375 -5.625 L 6.359375 -5.625 L 4.296875 0 L 1.84375 0 L 10.71875 -24.078125 L 13.234375 -24.078125 L 22.0625 0 Z M 7.046875 -7.578125 L 16.859375 -7.578125 L 11.96875 -21.046875 Z M 7.046875 -7.578125" transform="translate(145.741 82.78)"/></g></g></g><g><g><g><path d="M 1.703125 -22.09375 L 1.703125 -24.078125 L 16.75 -24.078125 L 16.75 -22.09375 L 10.4375 -22.09375 L 10.4375 0 L 8.03125 0 L 8.03125 -22.09375 Z M 1.703125 -22.09375" transform="translate(169.647 82.78)"/></g></g></g><g><g><g><path d="M 14.875 -24.078125 L 14.875 -22.09375 L 5.0625 -22.09375 L 5.0625 -13.09375 L 13.828125 -13.09375 L 13.828125 -11.140625 L 5.0625 -11.140625 L 5.0625 -1.953125 L 14.875 -1.953125 L 14.875 0 L 2.625 0 L 2.625 -24.078125 Z M 14.875 -24.078125" transform="translate(188.108 82.78)"/></g></g></g><g><g><g><path d="M 18.5625 -24.078125 L 21.015625 -24.078125 L 21.015625 0 L 18.5625 0 L 5.0625 -20.171875 L 5.0625 0 L 2.625 0 L 2.625 -24.078125 L 5.0625 -24.078125 L 18.5625 -3.90625 Z M 18.5625 -24.078125" transform="translate(205.104 82.78)"/></g></g></g><g><g><g><path d="M 5.0625 0 L 2.625 0 L 2.625 -24.078125 L 5.0625 -24.078125 L 5.0625 -12.8125 L 15.5 -24.078125 L 18.671875 -24.078125 L 6.984375 -11.875 L 18.671875 0 L 15.359375 0 L 5.0625 -10.828125 Z M 5.0625 0" transform="translate(239.2 82.78)"/></g></g></g><g><g><g><path d="M 14.875 -24.078125 L 14.875 -22.09375 L 5.0625 -22.09375 L 5.0625 -13.09375 L 13.828125 -13.09375 L 13.828125 -11.140625 L 5.0625 -11.140625 L 5.0625 -1.953125 L 14.875 -1.953125 L 14.875 0 L 2.625 0 L 2.625 -24.078125 Z M 14.875 -24.078125" transform="translate(258.919 82.78)"/></g></g></g><g><g><g><path d="M 5.0625 -1.890625 L 10.015625 -1.890625 C 13.253906 -1.890625 15.71875 -2.765625 17.40625 -4.515625 C 19.09375 -6.273438 19.9375 -8.738281 19.9375 -11.90625 C 19.9375 -15.070312 19.09375 -17.53125 17.40625 -19.28125 C 15.71875 -21.039062 13.253906 -21.921875 10.015625 -21.921875 L 5.0625 -21.921875 Z M 10.015625 -24.078125 C 13.898438 -24.078125 16.941406 -23 19.140625 -20.84375 C 21.335938 -18.695312 22.4375 -15.710938 22.4375 -11.890625 C 22.4375 -8.078125 21.34375 -5.140625 19.15625 -3.078125 C 16.96875 -1.023438 13.921875 0 10.015625 0 L 2.625 0 L 2.625 -24.078125 Z M 10.015625 -24.078125" transform="translate(275.914 82.78)"/></g></g></g><g><g><g><path d="M 2.625 0 L 2.625 -24.078125 L 5.0625 -24.078125 L 5.0625 0 Z M 2.625 0" transform="translate(299.82 82.78)"/></g></g></g><g><g><g><path d="M 5.0625 -10.09375 L 5.0625 0 L 2.625 0 L 2.625 -24.078125 L 9.984375 -24.078125 C 12.679688 -24.078125 14.726562 -23.429688 16.125 -22.140625 C 17.519531 -20.847656 18.21875 -19.210938 18.21875 -17.234375 C 18.21875 -15.265625 17.671875 -13.664062 16.578125 -12.4375 C 15.484375 -11.21875 13.851562 -10.46875 11.6875 -10.1875 L 18.53125 0 L 15.359375 0 L 8.828125 -10.09375 Z M 5.0625 -22.09375 L 5.0625 -12.078125 L 9.984375 -12.078125 C 13.828125 -12.078125 15.75 -13.742188 15.75 -17.078125 C 15.75 -20.421875 13.828125 -22.09375 9.984375 -22.09375 Z M 5.0625 -22.09375" transform="translate(307.498 82.78)"/></g></g></g><g><g><g><path d="M 2.625 0 L 2.625 -24.078125 L 5.0625 -24.078125 L 5.0625 0 Z M 2.625 0" transform="translate(328.542 82.78)"/></g></g></g></svg>