<svg xmlns="http://www.w3.org/2000/svg" width="375" viewBox="0 0 375 112.5" height="112.5" version="1.0"><g><g><g><path d="M 2.59375 -3.421875 C 3.519531 -3.453125 4.222656 -3.5625 4.703125 -3.75 C 5.191406 -3.9375 5.570312 -4.34375 5.84375 -4.96875 C 6.125 -5.59375 6.265625 -6.578125 6.265625 -7.921875 L 6.265625 -27.75 C 6.265625 -29.675781 6.332031 -31.226562 6.46875 -32.40625 L 2.59375 -32.25 L 2.59375 -36.234375 L 17.4375 -36.234375 L 17.4375 -32.8125 C 16.507812 -32.78125 15.800781 -32.671875 15.3125 -32.484375 C 14.832031 -32.296875 14.453125 -31.890625 14.171875 -31.265625 C 13.898438 -30.640625 13.765625 -29.65625 13.765625 -28.3125 L 13.765625 -8.484375 C 13.765625 -6.554688 13.695312 -5.003906 13.5625 -3.828125 C 14.664062 -3.929688 15.957031 -3.984375 17.4375 -3.984375 L 17.4375 0 L 2.59375 0 Z M 2.59375 -3.421875" transform="translate(2.276 57.494)"/></g></g></g><g><g><g><path d="M 13.5625 -20.65625 C 12.695312 -21.757812 11.75 -23.050781 10.71875 -24.53125 L 10.65625 -24.53125 L 10.765625 -8.484375 C 10.765625 -6.554688 10.695312 -5.003906 10.5625 -3.828125 C 11.664062 -3.929688 12.957031 -3.984375 14.4375 -3.984375 L 14.4375 0 L 2.640625 0 L 2.640625 -3.421875 C 3.566406 -3.453125 4.269531 -3.5625 4.75 -3.75 C 5.238281 -3.9375 5.617188 -4.34375 5.890625 -4.96875 C 6.171875 -5.59375 6.3125 -6.578125 6.3125 -7.921875 L 6.21875 -27.75 C 6.21875 -30.0625 6.285156 -31.613281 6.421875 -32.40625 L 2.484375 -32.25 L 2.484375 -36.234375 L 10.609375 -36.234375 L 26.453125 -16.25 C 27.898438 -14.351562 29.109375 -12.71875 30.078125 -11.34375 L 30.125 -11.34375 L 30.125 -27.75 C 30.125 -29.988281 30.175781 -31.539062 30.28125 -32.40625 L 26.40625 -32.25 L 26.40625 -36.234375 L 38.203125 -36.234375 L 38.203125 -32.8125 C 37.273438 -32.78125 36.566406 -32.671875 36.078125 -32.484375 C 35.597656 -32.296875 35.21875 -31.890625 34.9375 -31.265625 C 34.664062 -30.640625 34.53125 -29.65625 34.53125 -28.3125 L 34.53125 0.515625 L 30.125 0.515625 Z M 13.5625 -20.65625" transform="translate(22.31 57.494)"/></g></g></g><g><g><g><path d="M 15.890625 0.828125 C 14.472656 0.828125 12.960938 0.601562 11.359375 0.15625 C 9.753906 -0.289062 8.28125 -0.910156 6.9375 -1.703125 L 6.890625 -1.703125 L 7.046875 0.46875 L 3.046875 0.46875 L 3.046875 -11.640625 L 6.46875 -11.640625 C 6.914062 -8.816406 8 -6.65625 9.71875 -5.15625 C 11.445312 -3.65625 13.554688 -2.90625 16.046875 -2.90625 C 17.835938 -2.90625 19.320312 -3.378906 20.5 -4.328125 C 21.675781 -5.273438 22.265625 -6.421875 22.265625 -7.765625 C 22.265625 -8.867188 21.875 -9.816406 21.09375 -10.609375 C 20.320312 -11.398438 19.457031 -12.019531 18.5 -12.46875 C 17.550781 -12.925781 16.046875 -13.566406 13.984375 -14.390625 C 10.179688 -15.910156 7.269531 -17.632812 5.25 -19.5625 C 3.226562 -21.5 2.21875 -24.035156 2.21875 -27.171875 C 2.21875 -28.765625 2.613281 -30.3125 3.40625 -31.8125 C 4.207031 -33.3125 5.515625 -34.5625 7.328125 -35.5625 C 9.140625 -36.5625 11.476562 -37.0625 14.34375 -37.0625 C 15.820312 -37.0625 17.375 -36.84375 19 -36.40625 C 20.625 -35.976562 21.96875 -35.367188 23.03125 -34.578125 L 23.09375 -34.578125 L 22.875 -36.703125 L 26.921875 -36.703125 L 26.921875 -24.640625 L 23.5 -24.640625 C 23.050781 -27.472656 22.054688 -29.628906 20.515625 -31.109375 C 18.984375 -32.597656 17.03125 -33.34375 14.65625 -33.34375 C 13.09375 -33.34375 11.75 -32.914062 10.625 -32.0625 C 9.507812 -31.21875 8.953125 -30.160156 8.953125 -28.890625 C 8.953125 -27.367188 9.585938 -26.085938 10.859375 -25.046875 C 12.140625 -24.015625 14.300781 -22.878906 17.34375 -21.640625 C 20.820312 -20.253906 23.65625 -18.65625 25.84375 -16.84375 C 28.039062 -15.03125 29.140625 -12.625 29.140625 -9.625 C 29.140625 -7.59375 28.585938 -5.78125 27.484375 -4.1875 C 26.378906 -2.601562 24.828125 -1.367188 22.828125 -0.484375 C 20.828125 0.390625 18.515625 0.828125 15.890625 0.828125 Z M 15.890625 0.828125" transform="translate(62.325 57.494)"/></g></g></g><g><g><g><path d="M 2.59375 -3.421875 C 3.519531 -3.453125 4.222656 -3.5625 4.703125 -3.75 C 5.191406 -3.9375 5.570312 -4.34375 5.84375 -4.96875 C 6.125 -5.59375 6.265625 -6.578125 6.265625 -7.921875 L 6.265625 -27.75 C 6.265625 -29.675781 6.332031 -31.226562 6.46875 -32.40625 L 2.59375 -32.25 L 2.59375 -36.234375 L 17.296875 -36.34375 C 21.953125 -36.375 25.597656 -35.445312 28.234375 -33.5625 C 30.878906 -31.6875 32.203125 -28.832031 32.203125 -25 C 32.203125 -23.03125 31.648438 -21.148438 30.546875 -19.359375 C 29.441406 -17.566406 27.785156 -16.097656 25.578125 -14.953125 C 23.367188 -13.816406 20.675781 -13.195312 17.5 -13.09375 L 15.484375 -13.046875 L 13.765625 -13.09375 L 13.765625 -8.546875 C 13.765625 -6.578125 13.695312 -5.003906 13.5625 -3.828125 C 14.664062 -3.929688 16.132812 -3.984375 17.96875 -3.984375 L 17.96875 0 L 2.59375 0 Z M 16.09375 -16.828125 C 18.894531 -16.828125 20.941406 -17.523438 22.234375 -18.921875 C 23.523438 -20.316406 24.171875 -22.359375 24.171875 -25.046875 C 24.171875 -30.160156 21.859375 -32.71875 17.234375 -32.71875 C 16.023438 -32.71875 15.144531 -32.457031 14.59375 -31.9375 C 14.039062 -31.414062 13.765625 -30.3125 13.765625 -28.625 L 13.765625 -16.984375 C 14.492188 -16.878906 15.269531 -16.828125 16.09375 -16.828125 Z M 16.09375 -16.828125" transform="translate(93.28 57.494)"/></g></g></g><g><g><g><path d="M 2.59375 -3.421875 C 3.519531 -3.453125 4.222656 -3.5625 4.703125 -3.75 C 5.191406 -3.9375 5.570312 -4.34375 5.84375 -4.96875 C 6.125 -5.59375 6.265625 -6.578125 6.265625 -7.921875 L 6.265625 -27.75 C 6.265625 -29.675781 6.332031 -31.226562 6.46875 -32.40625 L 2.59375 -32.25 L 2.59375 -36.234375 L 28.46875 -36.234375 L 28.78125 -26.1875 L 25.359375 -26.1875 C 25.359375 -28.75 24.742188 -30.519531 23.515625 -31.5 C 22.296875 -32.476562 20.820312 -32.9375 19.09375 -32.875 L 17.234375 -32.8125 C 16.410156 -32.78125 15.753906 -32.671875 15.265625 -32.484375 C 14.785156 -32.296875 14.414062 -31.875 14.15625 -31.21875 C 13.894531 -30.5625 13.765625 -29.59375 13.765625 -28.3125 L 13.765625 -20.546875 L 19.828125 -20.546875 C 19.796875 -21.140625 19.726562 -22.640625 19.625 -25.046875 L 23.609375 -25.046875 L 23.609375 -12.46875 L 20.1875 -12.46875 C 20.1875 -13.851562 19.96875 -14.875 19.53125 -15.53125 C 19.101562 -16.1875 18.546875 -16.609375 17.859375 -16.796875 C 17.171875 -16.984375 16.253906 -17.0625 15.109375 -17.03125 L 13.765625 -16.984375 L 13.765625 -8.484375 C 13.765625 -6.617188 13.695312 -5.101562 13.5625 -3.9375 L 20.5 -3.9375 C 22.257812 -3.9375 23.75 -4.53125 24.96875 -5.71875 C 26.195312 -6.90625 26.8125 -8.796875 26.8125 -11.390625 L 30.171875 -11.390625 L 29.921875 0 L 2.59375 0 Z M 2.59375 -3.421875" transform="translate(126.36 57.494)"/></g></g></g><g><g><g><path d="M 2.59375 -3.421875 C 3.519531 -3.453125 4.222656 -3.5625 4.703125 -3.75 C 5.191406 -3.9375 5.570312 -4.34375 5.84375 -4.96875 C 6.125 -5.59375 6.265625 -6.578125 6.265625 -7.921875 L 6.265625 -27.75 C 6.265625 -29.675781 6.332031 -31.226562 6.46875 -32.40625 L 2.59375 -32.25 L 2.59375 -36.234375 L 17.4375 -36.234375 L 17.4375 -32.8125 C 16.507812 -32.78125 15.800781 -32.671875 15.3125 -32.484375 C 14.832031 -32.296875 14.453125 -31.890625 14.171875 -31.265625 C 13.898438 -30.640625 13.765625 -29.65625 13.765625 -28.3125 L 13.765625 -20.453125 L 17.5 -20.453125 L 21.484375 -27.234375 C 23.140625 -30.128906 24.3125 -31.851562 25 -32.40625 L 25 -32.453125 C 24.238281 -32.390625 23.582031 -32.347656 23.03125 -32.328125 C 22.476562 -32.304688 22.046875 -32.28125 21.734375 -32.25 L 21.734375 -36.234375 L 34.421875 -36.234375 L 34.421875 -32.8125 C 32.941406 -32.75 31.550781 -32.367188 30.25 -31.671875 C 28.957031 -30.984375 27.675781 -29.609375 26.40625 -27.546875 L 21.4375 -19.5625 L 21.4375 -19.515625 C 22.738281 -18.722656 23.820312 -17.722656 24.6875 -16.515625 L 30.03125 -9 C 32.582031 -5.382812 34.84375 -3.523438 36.8125 -3.421875 L 36.8125 0 L 28.828125 0 C 28.453125 -0.03125 27.703125 -0.640625 26.578125 -1.828125 C 25.460938 -3.023438 24.523438 -4.175781 23.765625 -5.28125 L 18.640625 -12.734375 C 18.148438 -13.421875 17.628906 -14.109375 17.078125 -14.796875 C 16.523438 -15.492188 16.046875 -16 15.640625 -16.3125 L 13.765625 -16.3125 L 13.765625 -8.484375 C 13.765625 -6.554688 13.695312 -5.003906 13.5625 -3.828125 C 14.664062 -3.929688 15.957031 -3.984375 17.4375 -3.984375 L 17.4375 0 L 2.59375 0 Z M 2.59375 -3.421875" transform="translate(158.661 57.494)"/></g></g></g><g><g><g><path d="M 9.3125 -3.421875 C 10.25 -3.453125 10.957031 -3.5625 11.4375 -3.75 C 11.925781 -3.9375 12.304688 -4.34375 12.578125 -4.96875 C 12.859375 -5.59375 13 -6.578125 13 -7.921875 L 13 -32.71875 L 10.609375 -32.71875 C 8.578125 -32.6875 7.007812 -31.992188 5.90625 -30.640625 C 4.800781 -29.296875 4.25 -27.257812 4.25 -24.53125 L 0.828125 -24.53125 L 1.09375 -36.234375 L 32.453125 -36.234375 L 32.765625 -24.53125 L 29.34375 -24.53125 C 29.34375 -27.257812 28.78125 -29.320312 27.65625 -30.71875 C 26.539062 -32.113281 24.984375 -32.796875 22.984375 -32.765625 L 20.5 -32.765625 L 20.5 -8.484375 C 20.5 -6.171875 20.429688 -4.617188 20.296875 -3.828125 C 21.429688 -3.929688 22.8125 -3.984375 24.4375 -3.984375 L 24.4375 0 L 9.3125 0 Z M 9.3125 -3.421875" transform="translate(195.519 57.494)"/></g></g></g><g><g><g><path d="M 19.828125 0.828125 C 15.679688 0.828125 12.257812 -0.0820312 9.5625 -1.90625 C 6.875 -3.738281 4.910156 -6.085938 3.671875 -8.953125 C 2.429688 -11.816406 1.8125 -14.875 1.8125 -18.125 C 1.8125 -21.1875 2.5 -24.164062 3.875 -27.0625 C 5.257812 -29.96875 7.320312 -32.359375 10.0625 -34.234375 C 12.8125 -36.117188 16.117188 -37.0625 19.984375 -37.0625 C 23.953125 -37.0625 27.289062 -36.117188 30 -34.234375 C 32.707031 -32.359375 34.71875 -29.96875 36.03125 -27.0625 C 37.34375 -24.164062 38 -21.1875 38 -18.125 C 38 -15.113281 37.304688 -12.148438 35.921875 -9.234375 C 34.546875 -6.316406 32.484375 -3.910156 29.734375 -2.015625 C 26.992188 -0.117188 23.691406 0.828125 19.828125 0.828125 Z M 20.34375 -2.953125 C 22.582031 -2.953125 24.410156 -3.660156 25.828125 -5.078125 C 27.242188 -6.492188 28.257812 -8.285156 28.875 -10.453125 C 29.5 -12.628906 29.8125 -14.890625 29.8125 -17.234375 C 29.8125 -22.140625 28.945312 -26.039062 27.21875 -28.9375 C 25.5 -31.832031 22.945312 -33.28125 19.5625 -33.28125 C 17.289062 -33.28125 15.425781 -32.554688 13.96875 -31.109375 C 12.519531 -29.660156 11.484375 -27.832031 10.859375 -25.625 C 10.242188 -23.414062 9.9375 -21.117188 9.9375 -18.734375 C 9.9375 -16.316406 10.28125 -13.898438 10.96875 -11.484375 C 11.664062 -9.078125 12.796875 -7.050781 14.359375 -5.40625 C 15.929688 -3.769531 17.925781 -2.953125 20.34375 -2.953125 Z M 20.34375 -2.953125" transform="translate(229.167 57.494)"/></g></g></g><g><g><g><path d="M 2.59375 -3.421875 C 3.519531 -3.453125 4.222656 -3.5625 4.703125 -3.75 C 5.191406 -3.9375 5.570312 -4.34375 5.84375 -4.96875 C 6.125 -5.59375 6.265625 -6.578125 6.265625 -7.921875 L 6.265625 -27.75 C 6.265625 -29.675781 6.332031 -31.226562 6.46875 -32.40625 L 2.59375 -32.25 L 2.59375 -36.234375 L 17.296875 -36.34375 C 22.015625 -36.375 25.660156 -35.539062 28.234375 -33.84375 C 30.804688 -32.15625 32.09375 -29.414062 32.09375 -25.625 C 32.09375 -23.238281 31.320312 -21.125 29.78125 -19.28125 C 28.25 -17.4375 25.984375 -16.082031 22.984375 -15.21875 L 22.984375 -15.171875 C 23.609375 -14.929688 24.25 -14.507812 24.90625 -13.90625 C 25.5625 -13.300781 26.113281 -12.632812 26.5625 -11.90625 L 28.984375 -8.28125 C 30.160156 -6.445312 31.132812 -5.1875 31.90625 -4.5 C 32.6875 -3.8125 33.644531 -3.453125 34.78125 -3.421875 L 34.78125 0 L 26.25 0 C 25.65625 -0.414062 25.066406 -1.007812 24.484375 -1.78125 C 23.898438 -2.5625 23.226562 -3.585938 22.46875 -4.859375 L 18.640625 -11.078125 C 17.773438 -12.460938 17.050781 -13.460938 16.46875 -14.078125 L 13.765625 -14.078125 L 13.765625 -8.546875 C 13.765625 -6.578125 13.695312 -5.003906 13.5625 -3.828125 C 14.664062 -3.929688 16.132812 -3.984375 17.96875 -3.984375 L 17.96875 0 L 2.59375 0 Z M 16.25 -17.8125 C 19.082031 -17.8125 21.128906 -18.441406 22.390625 -19.703125 C 23.648438 -20.960938 24.28125 -22.9375 24.28125 -25.625 C 24.28125 -28.488281 23.546875 -30.382812 22.078125 -31.3125 C 20.609375 -32.25 18.992188 -32.71875 17.234375 -32.71875 C 16.023438 -32.71875 15.144531 -32.457031 14.59375 -31.9375 C 14.039062 -31.414062 13.765625 -30.3125 13.765625 -28.625 L 13.765625 -18.015625 C 14.804688 -17.878906 15.632812 -17.8125 16.25 -17.8125 Z M 16.25 -17.8125" transform="translate(268.975 57.494)"/></g></g></g><g><g><g><path d="M 0.203125 -3.578125 C 1.097656 -3.578125 1.847656 -3.832031 2.453125 -4.34375 C 3.054688 -4.863281 3.53125 -5.492188 3.875 -6.234375 C 4.226562 -6.972656 4.660156 -8.050781 5.171875 -9.46875 L 15.265625 -37.171875 L 18.890625 -37.171875 L 29.921875 -8.953125 C 30.191406 -8.265625 30.484375 -7.410156 30.796875 -6.390625 C 31.109375 -5.367188 31.300781 -4.515625 31.375 -3.828125 C 32.507812 -3.929688 33.507812 -3.984375 34.375 -3.984375 L 34.375 0 L 20.453125 0 L 20.453125 -3.421875 C 22.109375 -3.421875 22.9375 -4.109375 22.9375 -5.484375 C 22.9375 -6.171875 22.742188 -7 22.359375 -7.96875 L 21.328125 -10.8125 L 10.09375 -10.609375 L 9.265625 -8.171875 C 9.160156 -7.898438 8.925781 -7.28125 8.5625 -6.3125 C 8.207031 -5.34375 7.890625 -4.566406 7.609375 -3.984375 C 8.710938 -4.085938 9.9375 -4.140625 11.28125 -4.140625 L 11.28125 0 L 0.203125 0 Z M 20.03125 -14.5 L 17.65625 -20.96875 C 16.65625 -23.789062 16 -26.15625 15.6875 -28.0625 L 15.640625 -28.0625 C 15.085938 -25.570312 14.445312 -23.289062 13.71875 -21.21875 L 11.390625 -14.5 Z M 20.03125 -14.5" transform="translate(304.486 57.494)"/></g></g></g><g><g><g><path d="M 9.3125 -3.421875 C 10.25 -3.453125 10.957031 -3.5625 11.4375 -3.75 C 11.925781 -3.9375 12.304688 -4.34375 12.578125 -4.96875 C 12.859375 -5.59375 13 -6.578125 13 -7.921875 L 13 -32.71875 L 10.609375 -32.71875 C 8.578125 -32.6875 7.007812 -31.992188 5.90625 -30.640625 C 4.800781 -29.296875 4.25 -27.257812 4.25 -24.53125 L 0.828125 -24.53125 L 1.09375 -36.234375 L 32.453125 -36.234375 L 32.765625 -24.53125 L 29.34375 -24.53125 C 29.34375 -27.257812 28.78125 -29.320312 27.65625 -30.71875 C 26.539062 -32.113281 24.984375 -32.796875 22.984375 -32.765625 L 20.5 -32.765625 L 20.5 -8.484375 C 20.5 -6.171875 20.429688 -4.617188 20.296875 -3.828125 C 21.429688 -3.929688 22.8125 -3.984375 24.4375 -3.984375 L 24.4375 0 L 9.3125 0 Z M 9.3125 -3.421875" transform="translate(339.066 57.494)"/></g></g></g><g><g><g><path d="M 1.640625 -0.984375 C 2.335938 -1.003906 2.832031 -1.160156 3.125 -1.453125 C 3.425781 -1.753906 3.597656 -2.109375 3.640625 -2.515625 C 3.679688 -2.929688 3.703125 -3.644531 3.703125 -4.65625 L 3.703125 -17.5625 C 3.703125 -18.394531 3.734375 -19.109375 3.796875 -19.703125 L 1.640625 -19.59375 L 1.640625 -20.90625 L 8.359375 -20.90625 L 8.359375 -19.921875 C 7.660156 -19.898438 7.160156 -19.738281 6.859375 -19.4375 C 6.566406 -19.132812 6.398438 -18.78125 6.359375 -18.375 C 6.316406 -17.96875 6.296875 -17.257812 6.296875 -16.25 L 6.296875 -11.34375 L 8.546875 -11.34375 L 12.265625 -17.234375 C 13.003906 -18.347656 13.710938 -19.179688 14.390625 -19.734375 L 12.578125 -19.671875 L 12.578125 -20.90625 L 18.984375 -20.90625 L 18.984375 -19.921875 C 18.066406 -19.835938 17.296875 -19.6875 16.671875 -19.46875 C 16.046875 -19.25 15.429688 -18.859375 14.828125 -18.296875 C 14.234375 -17.742188 13.609375 -16.941406 12.953125 -15.890625 L 10.03125 -11.234375 C 10.46875 -10.953125 10.84375 -10.644531 11.15625 -10.3125 C 11.476562 -9.988281 11.765625 -9.660156 12.015625 -9.328125 C 12.265625 -9.003906 12.429688 -8.789062 12.515625 -8.6875 L 15.859375 -4.234375 C 16.585938 -3.265625 17.195312 -2.550781 17.6875 -2.09375 C 18.175781 -1.632812 18.597656 -1.332031 18.953125 -1.1875 C 19.316406 -1.050781 19.75 -0.984375 20.25 -0.984375 L 20.25 0 L 16.609375 0 C 16.085938 0 15.082031 -0.972656 13.59375 -2.921875 L 10 -7.765625 C 9.519531 -8.378906 9.101562 -8.882812 8.75 -9.28125 C 8.40625 -9.6875 8.078125 -9.988281 7.765625 -10.1875 L 6.296875 -10.15625 L 6.296875 -3.546875 C 6.296875 -2.492188 6.265625 -1.707031 6.203125 -1.1875 L 8.359375 -1.3125 L 8.359375 0 L 1.640625 0 Z M 1.640625 -0.984375" transform="translate(44.942 97.865)"/></g></g></g><g><g><g><path d="M -0.171875 -0.984375 C 0.316406 -0.984375 0.710938 -1.097656 1.015625 -1.328125 C 1.316406 -1.554688 1.5625 -1.851562 1.75 -2.21875 C 1.9375 -2.59375 2.160156 -3.144531 2.421875 -3.875 L 2.71875 -4.71875 L 8.875 -21.46875 L 9.578125 -21.46875 L 16.25 -4.484375 C 16.46875 -3.941406 16.65625 -3.359375 16.8125 -2.734375 C 16.96875 -2.109375 17.035156 -1.59375 17.015625 -1.1875 L 19.046875 -1.3125 L 19.046875 0 L 12.21875 0 L 12.21875 -0.984375 C 13.382812 -1.003906 13.96875 -1.484375 13.96875 -2.421875 C 13.96875 -2.796875 13.867188 -3.265625 13.671875 -3.828125 L 12.625 -6.625 L 4.859375 -6.453125 C 4.566406 -5.628906 4.222656 -4.5625 3.828125 -3.25 C 3.617188 -2.59375 3.367188 -1.90625 3.078125 -1.1875 L 5.40625 -1.3125 L 5.40625 0 L -0.171875 0 Z M 12.21875 -7.734375 L 10.09375 -13.4375 L 8.75 -17.109375 L 8.6875 -17.109375 L 7.4375 -13.734375 L 5.828125 -9.203125 L 5.3125 -7.734375 Z M 12.21875 -7.734375" transform="translate(65.334 97.865)"/></g></g></g><g><g><g><path d="M 1.640625 -0.984375 C 2.335938 -1.003906 2.832031 -1.160156 3.125 -1.453125 C 3.425781 -1.753906 3.597656 -2.117188 3.640625 -2.546875 C 3.679688 -2.972656 3.703125 -3.726562 3.703125 -4.8125 L 3.703125 -17.34375 C 3.703125 -18.414062 3.734375 -19.203125 3.796875 -19.703125 L 1.640625 -19.59375 L 1.640625 -20.90625 C 4.546875 -20.945312 6.796875 -20.96875 8.390625 -20.96875 C 10.734375 -20.96875 12.535156 -20.550781 13.796875 -19.71875 C 15.066406 -18.894531 15.703125 -17.644531 15.703125 -15.96875 C 15.703125 -14.894531 15.28125 -13.90625 14.4375 -13 C 13.59375 -12.09375 12.375 -11.503906 10.78125 -11.234375 L 10.78125 -11.171875 C 12.90625 -11.171875 14.539062 -10.679688 15.6875 -9.703125 C 16.832031 -8.722656 17.40625 -7.441406 17.40625 -5.859375 C 17.40625 -4.660156 17.101562 -3.617188 16.5 -2.734375 C 15.894531 -1.847656 15.054688 -1.171875 13.984375 -0.703125 C 12.921875 -0.234375 11.710938 0 10.359375 0 L 1.640625 0 Z M 8.484375 -11.5 C 10.054688 -11.519531 11.195312 -11.953125 11.90625 -12.796875 C 12.625 -13.640625 12.984375 -14.679688 12.984375 -15.921875 C 12.984375 -17.410156 12.550781 -18.441406 11.6875 -19.015625 C 10.820312 -19.597656 9.773438 -19.890625 8.546875 -19.890625 C 7.898438 -19.890625 7.414062 -19.796875 7.09375 -19.609375 C 6.78125 -19.429688 6.566406 -19.144531 6.453125 -18.75 C 6.347656 -18.351562 6.296875 -17.765625 6.296875 -16.984375 L 6.296875 -11.4375 Z M 9.375 -1.140625 C 10.945312 -1.140625 12.195312 -1.53125 13.125 -2.3125 C 14.050781 -3.101562 14.515625 -4.222656 14.515625 -5.671875 C 14.515625 -7.367188 14.039062 -8.570312 13.09375 -9.28125 C 12.144531 -10 10.90625 -10.359375 9.375 -10.359375 C 8.28125 -10.359375 7.253906 -10.328125 6.296875 -10.265625 L 6.296875 -3.515625 C 6.296875 -2.484375 6.265625 -1.707031 6.203125 -1.1875 C 6.585938 -1.15625 7.304688 -1.140625 8.359375 -1.140625 Z M 9.375 -1.140625" transform="translate(84.023 97.865)"/></g></g></g><g><g><g><path d="M 11.375 0.484375 C 9.269531 0.484375 7.601562 0.109375 6.375 -0.640625 C 5.144531 -1.390625 4.265625 -2.535156 3.734375 -4.078125 C 3.210938 -5.617188 2.953125 -7.65625 2.953125 -10.1875 L 2.953125 -16.25 C 2.953125 -17.519531 2.992188 -18.671875 3.078125 -19.703125 L 0.921875 -19.625 L 0.921875 -20.90625 L 7.609375 -20.90625 L 7.609375 -19.921875 C 6.734375 -19.921875 6.175781 -19.691406 5.9375 -19.234375 C 5.695312 -18.773438 5.578125 -18.21875 5.578125 -17.5625 L 5.578125 -10.03125 C 5.578125 -8.300781 5.734375 -6.800781 6.046875 -5.53125 C 6.359375 -4.269531 6.960938 -3.234375 7.859375 -2.421875 C 8.765625 -1.617188 10.066406 -1.21875 11.765625 -1.21875 C 13.835938 -1.21875 15.375 -1.929688 16.375 -3.359375 C 17.382812 -4.785156 17.910156 -6.722656 17.953125 -9.171875 L 18.03125 -17.5625 C 18.03125 -18.394531 18.0625 -19.109375 18.125 -19.703125 L 16 -19.59375 L 16 -20.90625 L 21.5625 -20.90625 L 21.5625 -19.921875 C 20.84375 -19.898438 20.332031 -19.738281 20.03125 -19.4375 C 19.738281 -19.132812 19.570312 -18.78125 19.53125 -18.375 C 19.488281 -17.96875 19.46875 -17.257812 19.46875 -16.25 L 19.40625 -9.3125 C 19.382812 -6.425781 18.742188 -4.070312 17.484375 -2.25 C 16.222656 -0.425781 14.1875 0.484375 11.375 0.484375 Z M 11.375 0.484375" transform="translate(102.593 97.865)"/></g></g></g><g><g><g><path d="M 1.640625 -0.984375 C 2.335938 -1.003906 2.832031 -1.160156 3.125 -1.453125 C 3.425781 -1.753906 3.597656 -2.109375 3.640625 -2.515625 C 3.679688 -2.929688 3.703125 -3.644531 3.703125 -4.65625 L 3.703125 -17.5625 C 3.703125 -18.394531 3.734375 -19.109375 3.796875 -19.703125 L 1.640625 -19.59375 L 1.640625 -20.90625 C 4.429688 -20.945312 6.648438 -20.96875 8.296875 -20.96875 C 11.265625 -20.96875 13.507812 -20.445312 15.03125 -19.40625 C 16.550781 -18.375 17.3125 -16.851562 17.3125 -14.84375 C 17.3125 -13.6875 17.007812 -12.578125 16.40625 -11.515625 C 15.800781 -10.460938 14.753906 -9.585938 13.265625 -8.890625 C 11.785156 -8.203125 9.820312 -7.859375 7.375 -7.859375 C 6.914062 -7.859375 6.554688 -7.867188 6.296875 -7.890625 L 6.296875 -3.546875 C 6.296875 -2.492188 6.265625 -1.707031 6.203125 -1.1875 L 8.953125 -1.34375 L 8.953125 0 L 1.640625 0 Z M 8.234375 -9.015625 C 9.367188 -9.015625 10.410156 -9.238281 11.359375 -9.6875 C 12.304688 -10.132812 13.050781 -10.78125 13.59375 -11.625 C 14.144531 -12.476562 14.421875 -13.46875 14.421875 -14.59375 C 14.421875 -16.382812 13.875 -17.695312 12.78125 -18.53125 C 11.6875 -19.375 10.171875 -19.796875 8.234375 -19.796875 C 7.554688 -19.796875 7.082031 -19.65625 6.8125 -19.375 C 6.550781 -19.09375 6.398438 -18.757812 6.359375 -18.375 C 6.316406 -17.988281 6.296875 -17.28125 6.296875 -16.25 L 6.296875 -9.109375 C 6.796875 -9.046875 7.441406 -9.015625 8.234375 -9.015625 Z M 8.234375 -9.015625" transform="translate(125.045 97.865)"/></g></g></g><g><g><g><path d="M -0.171875 -0.984375 C 0.316406 -0.984375 0.710938 -1.097656 1.015625 -1.328125 C 1.316406 -1.554688 1.5625 -1.851562 1.75 -2.21875 C 1.9375 -2.59375 2.160156 -3.144531 2.421875 -3.875 L 2.71875 -4.71875 L 8.875 -21.46875 L 9.578125 -21.46875 L 16.25 -4.484375 C 16.46875 -3.941406 16.65625 -3.359375 16.8125 -2.734375 C 16.96875 -2.109375 17.035156 -1.59375 17.015625 -1.1875 L 19.046875 -1.3125 L 19.046875 0 L 12.21875 0 L 12.21875 -0.984375 C 13.382812 -1.003906 13.96875 -1.484375 13.96875 -2.421875 C 13.96875 -2.796875 13.867188 -3.265625 13.671875 -3.828125 L 12.625 -6.625 L 4.859375 -6.453125 C 4.566406 -5.628906 4.222656 -4.5625 3.828125 -3.25 C 3.617188 -2.59375 3.367188 -1.90625 3.078125 -1.1875 L 5.40625 -1.3125 L 5.40625 0 L -0.171875 0 Z M 12.21875 -7.734375 L 10.09375 -13.4375 L 8.75 -17.109375 L 8.6875 -17.109375 L 7.4375 -13.734375 L 5.828125 -9.203125 L 5.3125 -7.734375 Z M 12.21875 -7.734375" transform="translate(143.137 97.865)"/></g></g></g><g><g><g><path d="M 6.203125 -0.984375 C 7.066406 -1.023438 7.617188 -1.265625 7.859375 -1.703125 C 8.109375 -2.140625 8.234375 -2.816406 8.234375 -3.734375 L 8.234375 -4.65625 L 8.265625 -19.796875 L 5.203125 -19.765625 C 3.960938 -19.765625 3.078125 -19.347656 2.546875 -18.515625 C 2.023438 -17.691406 1.765625 -16.382812 1.765625 -14.59375 L 0.65625 -14.59375 L 0.84375 -20.90625 L 18.25 -20.90625 L 18.421875 -14.59375 L 17.28125 -14.59375 C 17.269531 -15.851562 17.148438 -16.851562 16.921875 -17.59375 C 16.691406 -18.34375 16.300781 -18.898438 15.75 -19.265625 C 15.195312 -19.640625 14.414062 -19.828125 13.40625 -19.828125 L 10.875 -19.828125 L 10.84375 -3.546875 C 10.84375 -2.492188 10.8125 -1.707031 10.75 -1.1875 L 13.234375 -1.3125 L 13.234375 0 L 6.203125 0 Z M 6.203125 -0.984375" transform="translate(161.827 97.865)"/></g></g></g><g><g><g><path d="M 1.640625 -0.984375 C 2.335938 -1.003906 2.832031 -1.160156 3.125 -1.453125 C 3.425781 -1.753906 3.597656 -2.109375 3.640625 -2.515625 C 3.679688 -2.929688 3.703125 -3.644531 3.703125 -4.65625 L 3.703125 -17.5625 C 3.703125 -18.394531 3.734375 -19.109375 3.796875 -19.703125 L 1.640625 -19.59375 L 1.640625 -20.90625 L 16 -20.90625 L 16.15625 -15.671875 L 15.171875 -15.671875 C 15.171875 -17.304688 14.816406 -18.421875 14.109375 -19.015625 C 13.398438 -19.617188 12.410156 -19.898438 11.140625 -19.859375 L 8.5625 -19.796875 C 7.851562 -19.773438 7.335938 -19.640625 7.015625 -19.390625 C 6.703125 -19.140625 6.503906 -18.789062 6.421875 -18.34375 C 6.335938 -17.894531 6.296875 -17.195312 6.296875 -16.25 L 6.296875 -11.46875 L 11.90625 -11.4375 L 11.703125 -14 L 13.015625 -14 L 13.015625 -7.734375 L 12.03125 -7.734375 C 12.03125 -8.472656 11.941406 -9.035156 11.765625 -9.421875 C 11.585938 -9.804688 11.3125 -10.0625 10.9375 -10.1875 C 10.570312 -10.320312 10.0625 -10.390625 9.40625 -10.390625 L 8.484375 -10.359375 L 6.296875 -10.265625 L 6.296875 -3.4375 C 6.296875 -2.394531 6.265625 -1.617188 6.203125 -1.109375 L 11.90625 -1.1875 C 13.300781 -1.207031 14.367188 -1.5625 15.109375 -2.25 C 15.847656 -2.9375 16.21875 -4.128906 16.21875 -5.828125 L 17.234375 -5.828125 L 17.046875 0 L 1.640625 0 Z M 1.640625 -0.984375" transform="translate(180.935 97.865)"/></g></g></g><g><g><g><path d="M 5.015625 -16.9375 L 4.984375 -16.9375 L 5.078125 -4.15625 C 5.078125 -2.820312 5.054688 -1.832031 5.015625 -1.1875 L 7.171875 -1.3125 L 7.171875 0 L 1.703125 0 L 1.703125 -0.984375 C 2.492188 -0.984375 3.019531 -1.210938 3.28125 -1.671875 C 3.539062 -2.128906 3.671875 -2.6875 3.671875 -3.34375 L 3.703125 -19.703125 L 1.703125 -19.59375 L 1.703125 -20.90625 L 5.25 -20.90625 L 17.96875 -3.875 L 18 -3.875 L 18.03125 -17.5625 C 18.03125 -18.394531 18.0625 -19.109375 18.125 -19.703125 L 15.96875 -19.59375 L 15.96875 -20.90625 L 21.46875 -20.90625 L 21.46875 -19.921875 C 20.875 -19.898438 20.429688 -19.785156 20.140625 -19.578125 C 19.847656 -19.367188 19.660156 -19.082031 19.578125 -18.71875 C 19.503906 -18.363281 19.46875 -17.882812 19.46875 -17.28125 L 19.46875 -16.25 L 19.40625 0.484375 L 17.96875 0.484375 Z M 5.015625 -16.9375" transform="translate(199.505 97.865)"/></g></g></g><g><g><g><path d="M 1.640625 -0.984375 C 2.335938 -1.003906 2.832031 -1.160156 3.125 -1.453125 C 3.425781 -1.753906 3.597656 -2.109375 3.640625 -2.515625 C 3.679688 -2.929688 3.703125 -3.644531 3.703125 -4.65625 L 3.703125 -17.5625 C 3.703125 -18.394531 3.734375 -19.109375 3.796875 -19.703125 L 1.640625 -19.59375 L 1.640625 -20.90625 L 8.359375 -20.90625 L 8.359375 -19.921875 C 7.660156 -19.898438 7.160156 -19.738281 6.859375 -19.4375 C 6.566406 -19.132812 6.398438 -18.78125 6.359375 -18.375 C 6.316406 -17.96875 6.296875 -17.257812 6.296875 -16.25 L 6.296875 -11.34375 L 8.546875 -11.34375 L 12.265625 -17.234375 C 13.003906 -18.347656 13.710938 -19.179688 14.390625 -19.734375 L 12.578125 -19.671875 L 12.578125 -20.90625 L 18.984375 -20.90625 L 18.984375 -19.921875 C 18.066406 -19.835938 17.296875 -19.6875 16.671875 -19.46875 C 16.046875 -19.25 15.429688 -18.859375 14.828125 -18.296875 C 14.234375 -17.742188 13.609375 -16.941406 12.953125 -15.890625 L 10.03125 -11.234375 C 10.46875 -10.953125 10.84375 -10.644531 11.15625 -10.3125 C 11.476562 -9.988281 11.765625 -9.660156 12.015625 -9.328125 C 12.265625 -9.003906 12.429688 -8.789062 12.515625 -8.6875 L 15.859375 -4.234375 C 16.585938 -3.265625 17.195312 -2.550781 17.6875 -2.09375 C 18.175781 -1.632812 18.597656 -1.332031 18.953125 -1.1875 C 19.316406 -1.050781 19.75 -0.984375 20.25 -0.984375 L 20.25 0 L 16.609375 0 C 16.085938 0 15.082031 -0.972656 13.59375 -2.921875 L 10 -7.765625 C 9.519531 -8.378906 9.101562 -8.882812 8.75 -9.28125 C 8.40625 -9.6875 8.078125 -9.988281 7.765625 -10.1875 L 6.296875 -10.15625 L 6.296875 -3.546875 C 6.296875 -2.492188 6.265625 -1.707031 6.203125 -1.1875 L 8.359375 -1.3125 L 8.359375 0 L 1.640625 0 Z M 1.640625 -0.984375" transform="translate(230.107 97.865)"/></g></g></g><g><g><g><path d="M 1.640625 -0.984375 C 2.335938 -1.003906 2.832031 -1.160156 3.125 -1.453125 C 3.425781 -1.753906 3.597656 -2.109375 3.640625 -2.515625 C 3.679688 -2.929688 3.703125 -3.644531 3.703125 -4.65625 L 3.703125 -17.5625 C 3.703125 -18.394531 3.734375 -19.109375 3.796875 -19.703125 L 1.640625 -19.59375 L 1.640625 -20.90625 L 16 -20.90625 L 16.15625 -15.671875 L 15.171875 -15.671875 C 15.171875 -17.304688 14.816406 -18.421875 14.109375 -19.015625 C 13.398438 -19.617188 12.410156 -19.898438 11.140625 -19.859375 L 8.5625 -19.796875 C 7.851562 -19.773438 7.335938 -19.640625 7.015625 -19.390625 C 6.703125 -19.140625 6.503906 -18.789062 6.421875 -18.34375 C 6.335938 -17.894531 6.296875 -17.195312 6.296875 -16.25 L 6.296875 -11.46875 L 11.90625 -11.4375 L 11.703125 -14 L 13.015625 -14 L 13.015625 -7.734375 L 12.03125 -7.734375 C 12.03125 -8.472656 11.941406 -9.035156 11.765625 -9.421875 C 11.585938 -9.804688 11.3125 -10.0625 10.9375 -10.1875 C 10.570312 -10.320312 10.0625 -10.390625 9.40625 -10.390625 L 8.484375 -10.359375 L 6.296875 -10.265625 L 6.296875 -3.4375 C 6.296875 -2.394531 6.265625 -1.617188 6.203125 -1.109375 L 11.90625 -1.1875 C 13.300781 -1.207031 14.367188 -1.5625 15.109375 -2.25 C 15.847656 -2.9375 16.21875 -4.128906 16.21875 -5.828125 L 17.234375 -5.828125 L 17.046875 0 L 1.640625 0 Z M 1.640625 -0.984375" transform="translate(250.498 97.865)"/></g></g></g><g><g><g><path d="M 1.640625 -0.984375 C 2.335938 -1.003906 2.832031 -1.160156 3.125 -1.453125 C 3.425781 -1.753906 3.597656 -2.109375 3.640625 -2.515625 C 3.679688 -2.929688 3.703125 -3.644531 3.703125 -4.65625 L 3.703125 -17.5625 C 3.703125 -18.394531 3.734375 -19.109375 3.796875 -19.703125 L 1.640625 -19.59375 L 1.640625 -20.90625 L 8.6875 -20.9375 C 12.425781 -20.957031 15.390625 -20.078125 17.578125 -18.296875 C 19.773438 -16.523438 20.875 -13.898438 20.875 -10.421875 C 20.875 -8.546875 20.4375 -6.8125 19.5625 -5.21875 C 18.6875 -3.632812 17.390625 -2.367188 15.671875 -1.421875 C 13.960938 -0.472656 11.90625 0 9.5 0 L 1.640625 0 Z M 9.40625 -1.140625 C 11.070312 -1.140625 12.550781 -1.546875 13.84375 -2.359375 C 15.144531 -3.171875 16.15625 -4.296875 16.875 -5.734375 C 17.59375 -7.171875 17.953125 -8.773438 17.953125 -10.546875 C 17.953125 -13.453125 17.15625 -15.722656 15.5625 -17.359375 C 13.96875 -19.003906 11.566406 -19.828125 8.359375 -19.828125 C 7.660156 -19.828125 7.160156 -19.6875 6.859375 -19.40625 C 6.566406 -19.125 6.398438 -18.78125 6.359375 -18.375 C 6.316406 -17.96875 6.296875 -17.257812 6.296875 -16.25 L 6.296875 -3.515625 C 6.296875 -2.484375 6.265625 -1.707031 6.203125 -1.1875 C 6.898438 -1.15625 7.96875 -1.140625 9.40625 -1.140625 Z M 9.40625 -1.140625" transform="translate(269.069 97.865)"/></g></g></g><g><g><g><path d="M 1.640625 -0.984375 C 2.335938 -1.003906 2.832031 -1.160156 3.125 -1.453125 C 3.425781 -1.753906 3.597656 -2.109375 3.640625 -2.515625 C 3.679688 -2.929688 3.703125 -3.644531 3.703125 -4.65625 L 3.703125 -17.5625 C 3.703125 -18.394531 3.734375 -19.109375 3.796875 -19.703125 L 1.640625 -19.59375 L 1.640625 -20.90625 L 8.359375 -20.90625 L 8.359375 -19.921875 C 7.660156 -19.898438 7.160156 -19.738281 6.859375 -19.4375 C 6.566406 -19.132812 6.398438 -18.78125 6.359375 -18.375 C 6.316406 -17.96875 6.296875 -17.257812 6.296875 -16.25 L 6.296875 -3.546875 C 6.296875 -2.492188 6.265625 -1.707031 6.203125 -1.1875 L 8.359375 -1.3125 L 8.359375 0 L 1.640625 0 Z M 1.640625 -0.984375" transform="translate(291.311 97.865)"/></g></g></g><g><g><g><path d="M 1.640625 -0.984375 C 2.335938 -1.003906 2.832031 -1.160156 3.125 -1.453125 C 3.425781 -1.753906 3.597656 -2.109375 3.640625 -2.515625 C 3.679688 -2.929688 3.703125 -3.644531 3.703125 -4.65625 L 3.703125 -17.5625 C 3.703125 -18.394531 3.734375 -19.109375 3.796875 -19.703125 L 1.640625 -19.59375 L 1.640625 -20.90625 C 3.710938 -20.945312 5.273438 -20.96875 6.328125 -20.96875 C 7.285156 -20.96875 8.003906 -20.957031 8.484375 -20.9375 C 11.285156 -20.894531 13.335938 -20.421875 14.640625 -19.515625 C 15.953125 -18.609375 16.609375 -17.300781 16.609375 -15.59375 C 16.617188 -14.21875 16.207031 -12.976562 15.375 -11.875 C 14.539062 -10.78125 13.085938 -10.023438 11.015625 -9.609375 C 11.359375 -9.347656 11.664062 -9.039062 11.9375 -8.6875 C 12.21875 -8.332031 12.597656 -7.773438 13.078125 -7.015625 L 15.109375 -3.828125 C 15.546875 -3.128906 15.90625 -2.59375 16.1875 -2.21875 C 16.476562 -1.851562 16.828125 -1.554688 17.234375 -1.328125 C 17.648438 -1.097656 18.15625 -0.984375 18.75 -0.984375 L 18.75 0 L 14.984375 0 C 14.453125 -0.457031 14 -0.929688 13.625 -1.421875 C 13.257812 -1.910156 12.828125 -2.539062 12.328125 -3.3125 L 10.328125 -6.515625 L 9.9375 -7.140625 C 9.625 -7.671875 9.347656 -8.101562 9.109375 -8.4375 C 8.867188 -8.78125 8.609375 -9.082031 8.328125 -9.34375 C 8.148438 -9.320312 7.875 -9.3125 7.5 -9.3125 C 6.957031 -9.3125 6.554688 -9.320312 6.296875 -9.34375 L 6.296875 -3.546875 C 6.296875 -2.492188 6.265625 -1.707031 6.203125 -1.1875 L 8.359375 -1.3125 L 8.359375 0 L 1.640625 0 Z M 7.609375 -10.453125 C 11.671875 -10.453125 13.703125 -12.054688 13.703125 -15.265625 C 13.703125 -16.773438 13.265625 -17.90625 12.390625 -18.65625 C 11.515625 -19.414062 10.171875 -19.796875 8.359375 -19.796875 C 7.660156 -19.796875 7.160156 -19.65625 6.859375 -19.375 C 6.566406 -19.09375 6.398438 -18.753906 6.359375 -18.359375 C 6.316406 -17.960938 6.296875 -17.257812 6.296875 -16.25 L 6.296875 -10.515625 C 6.898438 -10.472656 7.335938 -10.453125 7.609375 -10.453125 Z M 7.609375 -10.453125" transform="translate(301.313 97.865)"/></g></g></g><g><g><g><path d="M 1.640625 -0.984375 C 2.335938 -1.003906 2.832031 -1.160156 3.125 -1.453125 C 3.425781 -1.753906 3.597656 -2.109375 3.640625 -2.515625 C 3.679688 -2.929688 3.703125 -3.644531 3.703125 -4.65625 L 3.703125 -17.5625 C 3.703125 -18.394531 3.734375 -19.109375 3.796875 -19.703125 L 1.640625 -19.59375 L 1.640625 -20.90625 L 8.359375 -20.90625 L 8.359375 -19.921875 C 7.660156 -19.898438 7.160156 -19.738281 6.859375 -19.4375 C 6.566406 -19.132812 6.398438 -18.78125 6.359375 -18.375 C 6.316406 -17.96875 6.296875 -17.257812 6.296875 -16.25 L 6.296875 -3.546875 C 6.296875 -2.492188 6.265625 -1.707031 6.203125 -1.1875 L 8.359375 -1.3125 L 8.359375 0 L 1.640625 0 Z M 1.640625 -0.984375" transform="translate(320.062 97.865)"/></g></g></g></svg>